<mxfile host="Electron" modified="2023-05-30T19:30:34.214Z" agent="Mozilla/5.0 (Windows NT 10.0; Win64; x64) AppleWebKit/537.36 (KHTML, like Gecko) draw.io/21.1.2 Chrome/106.0.5249.199 Electron/21.4.3 Safari/537.36" etag="6OBUmcuxE-m3byc_LhUk" version="21.1.2" type="device">
  <diagram name="Page-1" id="74e2e168-ea6b-b213-b513-2b3c1d86103e">
    <mxGraphModel dx="1567" dy="1506" grid="1" gridSize="10" guides="1" tooltips="1" connect="1" arrows="1" fold="1" page="1" pageScale="1" pageWidth="1100" pageHeight="850" background="none" math="0" shadow="0">
      <root>
        <mxCell id="0" />
        <mxCell id="1" parent="0" />
        <mxCell id="77e6c97f196da883-1" value="Pool" style="swimlane;html=1;childLayout=stackLayout;startSize=20;rounded=0;shadow=0;labelBackgroundColor=none;strokeWidth=1;fontFamily=Verdana;fontSize=8;align=center;strokeColor=#000000;fillColor=#FFFFFF;" parent="1" vertex="1">
          <mxGeometry x="50" y="-100" width="2980" height="850" as="geometry" />
        </mxCell>
        <mxCell id="77e6c97f196da883-2" value="Usuario" style="swimlane;html=1;startSize=20;" parent="77e6c97f196da883-1" vertex="1">
          <mxGeometry y="20" width="490" height="830" as="geometry" />
        </mxCell>
        <mxCell id="CKb4nDqmBLj_nbjiTrH--256" value="Início" style="ellipse;whiteSpace=wrap;html=1;aspect=fixed;fillColor=#d5e8d4;strokeColor=#82b366;" parent="77e6c97f196da883-2" vertex="1">
          <mxGeometry x="305" y="40" width="60" height="60" as="geometry" />
        </mxCell>
        <mxCell id="CKb4nDqmBLj_nbjiTrH--258" value="Cliente deseja entrar em contato com nossa central" style="rounded=1;whiteSpace=wrap;html=1;" parent="77e6c97f196da883-2" vertex="1">
          <mxGeometry x="275" y="140" width="120" height="60" as="geometry" />
        </mxCell>
        <mxCell id="CKb4nDqmBLj_nbjiTrH--255" value="" style="edgeStyle=orthogonalEdgeStyle;rounded=0;orthogonalLoop=1;jettySize=auto;html=1;" parent="77e6c97f196da883-2" source="CKb4nDqmBLj_nbjiTrH--256" target="CKb4nDqmBLj_nbjiTrH--258" edge="1">
          <mxGeometry relative="1" as="geometry" />
        </mxCell>
        <mxCell id="CKb4nDqmBLj_nbjiTrH--259" value="Enviar ticket de incidente/problema/requisição por meio de nossa plataforma" style="shape=process;whiteSpace=wrap;html=1;backgroundOutline=1;fillColor=#dae8fc;strokeColor=#6c8ebf;" parent="77e6c97f196da883-2" vertex="1">
          <mxGeometry x="230" y="250" width="210" height="60" as="geometry" />
        </mxCell>
        <mxCell id="CKb4nDqmBLj_nbjiTrH--257" value="" style="edgeStyle=orthogonalEdgeStyle;rounded=0;orthogonalLoop=1;jettySize=auto;html=1;" parent="77e6c97f196da883-2" source="CKb4nDqmBLj_nbjiTrH--258" target="CKb4nDqmBLj_nbjiTrH--259" edge="1">
          <mxGeometry relative="1" as="geometry" />
        </mxCell>
        <mxCell id="77e6c97f196da883-3" value="nivel de suporte 1 N1" style="swimlane;html=1;startSize=20;fillColor=#FFFFFF;" parent="77e6c97f196da883-1" vertex="1">
          <mxGeometry x="490" y="20" width="640" height="830" as="geometry" />
        </mxCell>
        <mxCell id="CKb4nDqmBLj_nbjiTrH--262" value="Central recebe novo ticket de incidente/problema/requisição" style="rounded=1;whiteSpace=wrap;html=1;" parent="77e6c97f196da883-3" vertex="1">
          <mxGeometry x="215" y="30" width="180" height="60" as="geometry" />
        </mxCell>
        <mxCell id="CKb4nDqmBLj_nbjiTrH--264" value="Analisar e diagnosticar o ticket" style="shape=process;whiteSpace=wrap;html=1;backgroundOutline=1;fillColor=#dae8fc;strokeColor=#6c8ebf;" parent="77e6c97f196da883-3" vertex="1">
          <mxGeometry x="225" y="160" width="160" height="60" as="geometry" />
        </mxCell>
        <mxCell id="CKb4nDqmBLj_nbjiTrH--261" value="" style="edgeStyle=orthogonalEdgeStyle;rounded=0;orthogonalLoop=1;jettySize=auto;html=1;" parent="77e6c97f196da883-3" source="CKb4nDqmBLj_nbjiTrH--262" target="CKb4nDqmBLj_nbjiTrH--264" edge="1">
          <mxGeometry relative="1" as="geometry" />
        </mxCell>
        <mxCell id="CKb4nDqmBLj_nbjiTrH--269" value="Escalonamento" style="rhombus;whiteSpace=wrap;html=1;fillColor=#fff2cc;strokeColor=#d6b656;" parent="77e6c97f196da883-3" vertex="1">
          <mxGeometry x="255" y="271.11" width="110" height="70" as="geometry" />
        </mxCell>
        <mxCell id="CKb4nDqmBLj_nbjiTrH--263" value="" style="edgeStyle=orthogonalEdgeStyle;rounded=0;orthogonalLoop=1;jettySize=auto;html=1;" parent="77e6c97f196da883-3" target="CKb4nDqmBLj_nbjiTrH--269" edge="1">
          <mxGeometry relative="1" as="geometry">
            <mxPoint x="310" y="201.11" as="sourcePoint" />
          </mxGeometry>
        </mxCell>
        <mxCell id="RMVmOYafyEuzD-MuC4tH-39" value="" style="edgeStyle=orthogonalEdgeStyle;rounded=0;orthogonalLoop=1;jettySize=auto;html=1;" parent="77e6c97f196da883-3" source="CKb4nDqmBLj_nbjiTrH--271" target="CKb4nDqmBLj_nbjiTrH--274" edge="1">
          <mxGeometry relative="1" as="geometry" />
        </mxCell>
        <mxCell id="CKb4nDqmBLj_nbjiTrH--271" value="Solucionar problema" style="shape=process;whiteSpace=wrap;html=1;backgroundOutline=1;fillColor=#dae8fc;strokeColor=#6C8EBF;" parent="77e6c97f196da883-3" vertex="1">
          <mxGeometry x="250" y="391.11" width="120" height="60" as="geometry" />
        </mxCell>
        <mxCell id="CKb4nDqmBLj_nbjiTrH--265" value="" style="edgeStyle=orthogonalEdgeStyle;rounded=0;orthogonalLoop=1;jettySize=auto;html=1;" parent="77e6c97f196da883-3" source="CKb4nDqmBLj_nbjiTrH--269" target="CKb4nDqmBLj_nbjiTrH--271" edge="1">
          <mxGeometry relative="1" as="geometry" />
        </mxCell>
        <mxCell id="CKb4nDqmBLj_nbjiTrH--272" style="edgeStyle=orthogonalEdgeStyle;rounded=0;orthogonalLoop=1;jettySize=auto;html=1;exitX=0;exitY=0.5;exitDx=0;exitDy=0;" parent="77e6c97f196da883-3" source="CKb4nDqmBLj_nbjiTrH--274" edge="1">
          <mxGeometry relative="1" as="geometry">
            <mxPoint x="230" y="220" as="targetPoint" />
          </mxGeometry>
        </mxCell>
        <mxCell id="RMVmOYafyEuzD-MuC4tH-42" style="edgeStyle=orthogonalEdgeStyle;rounded=0;orthogonalLoop=1;jettySize=auto;html=1;" parent="77e6c97f196da883-3" source="CKb4nDqmBLj_nbjiTrH--274" edge="1">
          <mxGeometry relative="1" as="geometry">
            <mxPoint x="310" y="581" as="targetPoint" />
          </mxGeometry>
        </mxCell>
        <mxCell id="CKb4nDqmBLj_nbjiTrH--274" value="Funcionou?&lt;br&gt;" style="rhombus;whiteSpace=wrap;html=1;fillColor=#fff2cc;strokeColor=#d6b656;" parent="77e6c97f196da883-3" vertex="1">
          <mxGeometry x="255" y="471.11" width="110" height="70" as="geometry" />
        </mxCell>
        <mxCell id="CKb4nDqmBLj_nbjiTrH--275" value="Próprio nível" style="text;html=1;align=center;verticalAlign=middle;resizable=0;points=[];autosize=1;strokeColor=none;fillColor=none;fontSize=11;" parent="77e6c97f196da883-3" vertex="1">
          <mxGeometry x="300" y="351.11" width="90" height="30" as="geometry" />
        </mxCell>
        <mxCell id="CKb4nDqmBLj_nbjiTrH--276" value="&lt;font style=&quot;font-size: 12px;&quot;&gt;Enviar para N2&lt;/font&gt;" style="text;html=1;align=center;verticalAlign=middle;resizable=0;points=[];autosize=1;strokeColor=none;fillColor=none;fontSize=11;" parent="77e6c97f196da883-3" vertex="1">
          <mxGeometry x="405" y="371.11" width="100" height="30" as="geometry" />
        </mxCell>
        <mxCell id="CKb4nDqmBLj_nbjiTrH--277" value="&lt;font style=&quot;font-size: 12px;&quot;&gt;Enviar para N3&lt;/font&gt;" style="text;html=1;align=center;verticalAlign=middle;resizable=0;points=[];autosize=1;strokeColor=none;fillColor=none;fontSize=11;" parent="77e6c97f196da883-3" vertex="1">
          <mxGeometry x="405" y="194.11" width="100" height="30" as="geometry" />
        </mxCell>
        <mxCell id="CKb4nDqmBLj_nbjiTrH--278" value="Não" style="text;html=1;align=center;verticalAlign=middle;resizable=0;points=[];autosize=1;strokeColor=none;fillColor=none;" parent="77e6c97f196da883-3" vertex="1">
          <mxGeometry x="205" y="501.11" width="50" height="30" as="geometry" />
        </mxCell>
        <mxCell id="CKb4nDqmBLj_nbjiTrH--279" style="edgeStyle=orthogonalEdgeStyle;rounded=0;orthogonalLoop=1;jettySize=auto;html=1;entryX=0.25;entryY=0;entryDx=0;entryDy=0;dashed=1;dashPattern=1 1;" parent="77e6c97f196da883-3" source="CKb4nDqmBLj_nbjiTrH--280" target="CKb4nDqmBLj_nbjiTrH--264" edge="1">
          <mxGeometry relative="1" as="geometry" />
        </mxCell>
        <mxCell id="CKb4nDqmBLj_nbjiTrH--280" value="&lt;font style=&quot;font-size: 9px;&quot;&gt;Base de&lt;br&gt;Conhecimento&lt;/font&gt;" style="shape=cylinder3;whiteSpace=wrap;html=1;boundedLbl=1;backgroundOutline=1;size=15;fillColor=#e1d5e7;strokeColor=#9673a6;" parent="77e6c97f196da883-3" vertex="1">
          <mxGeometry x="140" y="90" width="75" height="81.11" as="geometry" />
        </mxCell>
        <mxCell id="CKb4nDqmBLj_nbjiTrH--281" style="edgeStyle=orthogonalEdgeStyle;rounded=0;orthogonalLoop=1;jettySize=auto;html=1;dashed=1;dashPattern=1 1;exitX=0;exitY=0.5;exitDx=0;exitDy=0;entryX=0.5;entryY=1;entryDx=0;entryDy=0;entryPerimeter=0;" parent="77e6c97f196da883-3" source="RMVmOYafyEuzD-MuC4tH-10" target="CKb4nDqmBLj_nbjiTrH--280" edge="1">
          <mxGeometry relative="1" as="geometry">
            <mxPoint x="210" y="660" as="sourcePoint" />
            <mxPoint x="170" y="210" as="targetPoint" />
            <Array as="points">
              <mxPoint x="178" y="620" />
              <mxPoint x="178" y="210" />
              <mxPoint x="177" y="210" />
            </Array>
          </mxGeometry>
        </mxCell>
        <mxCell id="CKb4nDqmBLj_nbjiTrH--283" value="Sim" style="text;html=1;align=center;verticalAlign=middle;resizable=0;points=[];autosize=1;strokeColor=none;fillColor=none;" parent="77e6c97f196da883-3" vertex="1">
          <mxGeometry x="355" y="560" width="40" height="30" as="geometry" />
        </mxCell>
        <mxCell id="CKb4nDqmBLj_nbjiTrH--284" value="1" style="ellipse;whiteSpace=wrap;html=1;aspect=fixed;strokeColor=#36393d;fillColor=#ffff88;" parent="77e6c97f196da883-3" vertex="1">
          <mxGeometry x="430" y="321.11" width="50" height="50" as="geometry" />
        </mxCell>
        <mxCell id="CKb4nDqmBLj_nbjiTrH--266" style="edgeStyle=orthogonalEdgeStyle;rounded=0;orthogonalLoop=1;jettySize=auto;html=1;entryX=0;entryY=0.5;entryDx=0;entryDy=0;" parent="77e6c97f196da883-3" source="CKb4nDqmBLj_nbjiTrH--269" target="CKb4nDqmBLj_nbjiTrH--284" edge="1">
          <mxGeometry relative="1" as="geometry" />
        </mxCell>
        <mxCell id="CKb4nDqmBLj_nbjiTrH--285" value="2" style="ellipse;whiteSpace=wrap;html=1;aspect=fixed;strokeColor=#36393d;fillColor=#ffff88;" parent="77e6c97f196da883-3" vertex="1">
          <mxGeometry x="430" y="224.11" width="50" height="50" as="geometry" />
        </mxCell>
        <mxCell id="CKb4nDqmBLj_nbjiTrH--267" style="edgeStyle=orthogonalEdgeStyle;rounded=0;orthogonalLoop=1;jettySize=auto;html=1;entryX=0;entryY=0.5;entryDx=0;entryDy=0;" parent="77e6c97f196da883-3" source="CKb4nDqmBLj_nbjiTrH--269" target="CKb4nDqmBLj_nbjiTrH--285" edge="1">
          <mxGeometry relative="1" as="geometry" />
        </mxCell>
        <mxCell id="CKb4nDqmBLj_nbjiTrH--286" value="3" style="ellipse;whiteSpace=wrap;html=1;aspect=fixed;strokeColor=#36393d;fillColor=#ffff88;" parent="77e6c97f196da883-3" vertex="1">
          <mxGeometry x="535" y="281.11" width="50" height="50" as="geometry" />
        </mxCell>
        <mxCell id="CKb4nDqmBLj_nbjiTrH--268" style="edgeStyle=orthogonalEdgeStyle;rounded=0;orthogonalLoop=1;jettySize=auto;html=1;entryX=0;entryY=0.5;entryDx=0;entryDy=0;" parent="77e6c97f196da883-3" source="CKb4nDqmBLj_nbjiTrH--269" target="CKb4nDqmBLj_nbjiTrH--286" edge="1">
          <mxGeometry relative="1" as="geometry" />
        </mxCell>
        <mxCell id="CKb4nDqmBLj_nbjiTrH--288" value="Fim" style="ellipse;whiteSpace=wrap;html=1;aspect=fixed;fillColor=#f8cecc;strokeColor=#b85450;" parent="77e6c97f196da883-3" vertex="1">
          <mxGeometry x="275" y="760" width="60" height="60" as="geometry" />
        </mxCell>
        <mxCell id="RMVmOYafyEuzD-MuC4tH-1" value="Enviar para tecnico de campo" style="text;html=1;strokeColor=none;fillColor=none;align=center;verticalAlign=middle;whiteSpace=wrap;rounded=0;" parent="77e6c97f196da883-3" vertex="1">
          <mxGeometry x="520" y="237.11" width="80" height="37" as="geometry" />
        </mxCell>
        <mxCell id="RMVmOYafyEuzD-MuC4tH-47" value="" style="edgeStyle=orthogonalEdgeStyle;rounded=0;orthogonalLoop=1;jettySize=auto;html=1;" parent="77e6c97f196da883-3" source="RMVmOYafyEuzD-MuC4tH-10" target="RMVmOYafyEuzD-MuC4tH-41" edge="1">
          <mxGeometry relative="1" as="geometry" />
        </mxCell>
        <mxCell id="RMVmOYafyEuzD-MuC4tH-10" value="Finalização do chamado" style="shape=process;whiteSpace=wrap;html=1;backgroundOutline=1;fillColor=#dae8fc;strokeColor=#6C8EBF;" parent="77e6c97f196da883-3" vertex="1">
          <mxGeometry x="245" y="590" width="120" height="60" as="geometry" />
        </mxCell>
        <mxCell id="RMVmOYafyEuzD-MuC4tH-24" style="edgeStyle=orthogonalEdgeStyle;rounded=0;orthogonalLoop=1;jettySize=auto;html=1;entryX=1;entryY=0.5;entryDx=0;entryDy=0;" parent="77e6c97f196da883-3" source="RMVmOYafyEuzD-MuC4tH-21" target="CKb4nDqmBLj_nbjiTrH--271" edge="1">
          <mxGeometry relative="1" as="geometry" />
        </mxCell>
        <mxCell id="RMVmOYafyEuzD-MuC4tH-21" value="4" style="ellipse;whiteSpace=wrap;html=1;aspect=fixed;strokeColor=#36393d;fillColor=#ffff88;" parent="77e6c97f196da883-3" vertex="1">
          <mxGeometry x="495" y="481.11" width="50" height="50" as="geometry" />
        </mxCell>
        <mxCell id="RMVmOYafyEuzD-MuC4tH-22" value="Retorno da analise&lt;br&gt;&amp;nbsp;que recebe do n2 ou n3" style="text;html=1;align=center;verticalAlign=middle;resizable=0;points=[];autosize=1;strokeColor=none;fillColor=none;" parent="77e6c97f196da883-3" vertex="1">
          <mxGeometry x="450" y="531.11" width="150" height="40" as="geometry" />
        </mxCell>
        <mxCell id="RMVmOYafyEuzD-MuC4tH-53" style="edgeStyle=orthogonalEdgeStyle;rounded=0;orthogonalLoop=1;jettySize=auto;html=1;entryX=0.5;entryY=0;entryDx=0;entryDy=0;" parent="77e6c97f196da883-3" source="RMVmOYafyEuzD-MuC4tH-41" target="CKb4nDqmBLj_nbjiTrH--288" edge="1">
          <mxGeometry relative="1" as="geometry" />
        </mxCell>
        <mxCell id="RMVmOYafyEuzD-MuC4tH-41" value="Comunica o cliente" style="shape=process;whiteSpace=wrap;html=1;backgroundOutline=1;fillColor=#dae8fc;strokeColor=#6C8EBF;" parent="77e6c97f196da883-3" vertex="1">
          <mxGeometry x="245" y="670" width="120" height="60" as="geometry" />
        </mxCell>
        <mxCell id="77e6c97f196da883-4" value="nivel de suporte 2 N2" style="swimlane;html=1;startSize=20;" parent="77e6c97f196da883-1" vertex="1">
          <mxGeometry x="1130" y="20" width="550" height="830" as="geometry" />
        </mxCell>
        <mxCell id="CKb4nDqmBLj_nbjiTrH--291" value="Recebe problema/requisição do N1" style="rounded=1;whiteSpace=wrap;html=1;" parent="77e6c97f196da883-4" vertex="1">
          <mxGeometry x="190" y="60" width="180" height="60" as="geometry" />
        </mxCell>
        <mxCell id="CKb4nDqmBLj_nbjiTrH--293" value="Analisar e diagnosticar o ticket" style="shape=process;whiteSpace=wrap;html=1;backgroundOutline=1;fillColor=#dae8fc;strokeColor=#6c8ebf;" parent="77e6c97f196da883-4" vertex="1">
          <mxGeometry x="200" y="170" width="160" height="60" as="geometry" />
        </mxCell>
        <mxCell id="CKb4nDqmBLj_nbjiTrH--290" value="" style="edgeStyle=orthogonalEdgeStyle;rounded=0;orthogonalLoop=1;jettySize=auto;html=1;" parent="77e6c97f196da883-4" source="CKb4nDqmBLj_nbjiTrH--291" target="CKb4nDqmBLj_nbjiTrH--293" edge="1">
          <mxGeometry relative="1" as="geometry" />
        </mxCell>
        <mxCell id="RMVmOYafyEuzD-MuC4tH-14" style="edgeStyle=orthogonalEdgeStyle;rounded=0;orthogonalLoop=1;jettySize=auto;html=1;entryX=0;entryY=0.5;entryDx=0;entryDy=0;" parent="77e6c97f196da883-4" source="CKb4nDqmBLj_nbjiTrH--297" target="RMVmOYafyEuzD-MuC4tH-12" edge="1">
          <mxGeometry relative="1" as="geometry" />
        </mxCell>
        <mxCell id="CKb4nDqmBLj_nbjiTrH--297" value="Escalonamento" style="rhombus;whiteSpace=wrap;html=1;fillColor=#fff2cc;strokeColor=#d6b656;" parent="77e6c97f196da883-4" vertex="1">
          <mxGeometry x="225" y="275" width="110" height="70" as="geometry" />
        </mxCell>
        <mxCell id="CKb4nDqmBLj_nbjiTrH--292" value="" style="edgeStyle=orthogonalEdgeStyle;rounded=0;orthogonalLoop=1;jettySize=auto;html=1;" parent="77e6c97f196da883-4" source="CKb4nDqmBLj_nbjiTrH--293" target="CKb4nDqmBLj_nbjiTrH--297" edge="1">
          <mxGeometry relative="1" as="geometry" />
        </mxCell>
        <mxCell id="CKb4nDqmBLj_nbjiTrH--299" value="solucionar problema" style="shape=process;whiteSpace=wrap;html=1;backgroundOutline=1;fillColor=#dae8fc;strokeColor=#6c8ebf;" parent="77e6c97f196da883-4" vertex="1">
          <mxGeometry x="220" y="400" width="120" height="60" as="geometry" />
        </mxCell>
        <mxCell id="CKb4nDqmBLj_nbjiTrH--294" value="" style="edgeStyle=orthogonalEdgeStyle;rounded=0;orthogonalLoop=1;jettySize=auto;html=1;" parent="77e6c97f196da883-4" source="CKb4nDqmBLj_nbjiTrH--297" target="CKb4nDqmBLj_nbjiTrH--299" edge="1">
          <mxGeometry relative="1" as="geometry" />
        </mxCell>
        <mxCell id="CKb4nDqmBLj_nbjiTrH--300" style="edgeStyle=orthogonalEdgeStyle;rounded=0;orthogonalLoop=1;jettySize=auto;html=1;exitX=0;exitY=0.5;exitDx=0;exitDy=0;entryX=0;entryY=0.5;entryDx=0;entryDy=0;" parent="77e6c97f196da883-4" source="CKb4nDqmBLj_nbjiTrH--301" target="CKb4nDqmBLj_nbjiTrH--293" edge="1">
          <mxGeometry relative="1" as="geometry" />
        </mxCell>
        <mxCell id="CKb4nDqmBLj_nbjiTrH--301" value="Funcionou?&lt;br&gt;" style="rhombus;whiteSpace=wrap;html=1;fillColor=#fff2cc;strokeColor=#d6b656;" parent="77e6c97f196da883-4" vertex="1">
          <mxGeometry x="225" y="500" width="110" height="70" as="geometry" />
        </mxCell>
        <mxCell id="CKb4nDqmBLj_nbjiTrH--298" value="" style="edgeStyle=orthogonalEdgeStyle;rounded=0;orthogonalLoop=1;jettySize=auto;html=1;" parent="77e6c97f196da883-4" source="CKb4nDqmBLj_nbjiTrH--299" target="CKb4nDqmBLj_nbjiTrH--301" edge="1">
          <mxGeometry relative="1" as="geometry" />
        </mxCell>
        <mxCell id="CKb4nDqmBLj_nbjiTrH--302" value="Próprio nível" style="text;html=1;align=center;verticalAlign=middle;resizable=0;points=[];autosize=1;strokeColor=none;fillColor=none;fontSize=11;" parent="77e6c97f196da883-4" vertex="1">
          <mxGeometry x="270" y="360" width="90" height="30" as="geometry" />
        </mxCell>
        <mxCell id="CKb4nDqmBLj_nbjiTrH--303" value="Enviar para N3" style="text;html=1;align=center;verticalAlign=middle;resizable=0;points=[];autosize=1;strokeColor=none;fillColor=none;fontSize=11;" parent="77e6c97f196da883-4" vertex="1">
          <mxGeometry x="350" y="222" width="100" height="30" as="geometry" />
        </mxCell>
        <mxCell id="CKb4nDqmBLj_nbjiTrH--304" value="Não" style="text;html=1;align=center;verticalAlign=middle;resizable=0;points=[];autosize=1;strokeColor=none;fillColor=none;" parent="77e6c97f196da883-4" vertex="1">
          <mxGeometry x="180" y="510" width="50" height="30" as="geometry" />
        </mxCell>
        <mxCell id="CKb4nDqmBLj_nbjiTrH--305" value="Sim" style="text;html=1;align=center;verticalAlign=middle;resizable=0;points=[];autosize=1;strokeColor=none;fillColor=none;" parent="77e6c97f196da883-4" vertex="1">
          <mxGeometry x="240" y="570" width="40" height="30" as="geometry" />
        </mxCell>
        <mxCell id="CKb4nDqmBLj_nbjiTrH--306" style="edgeStyle=orthogonalEdgeStyle;rounded=0;orthogonalLoop=1;jettySize=auto;html=1;exitX=1;exitY=0.5;exitDx=0;exitDy=0;exitPerimeter=0;entryX=0.25;entryY=0;entryDx=0;entryDy=0;dashed=1;" parent="77e6c97f196da883-4" source="CKb4nDqmBLj_nbjiTrH--307" target="CKb4nDqmBLj_nbjiTrH--293" edge="1">
          <mxGeometry relative="1" as="geometry" />
        </mxCell>
        <mxCell id="CKb4nDqmBLj_nbjiTrH--307" value="&lt;font style=&quot;font-size: 9px;&quot;&gt;Base de&lt;br&gt;Conhecimento&lt;/font&gt;" style="shape=cylinder3;whiteSpace=wrap;html=1;boundedLbl=1;backgroundOutline=1;size=15;fillColor=#e1d5e7;strokeColor=#9673a6;" parent="77e6c97f196da883-4" vertex="1">
          <mxGeometry x="110" y="108.89" width="70" height="71.11" as="geometry" />
        </mxCell>
        <mxCell id="CKb4nDqmBLj_nbjiTrH--308" style="edgeStyle=orthogonalEdgeStyle;rounded=0;orthogonalLoop=1;jettySize=auto;html=1;entryX=0;entryY=0.5;entryDx=0;entryDy=0;" parent="77e6c97f196da883-4" source="CKb4nDqmBLj_nbjiTrH--309" target="CKb4nDqmBLj_nbjiTrH--291" edge="1">
          <mxGeometry relative="1" as="geometry" />
        </mxCell>
        <mxCell id="CKb4nDqmBLj_nbjiTrH--309" value="1" style="ellipse;whiteSpace=wrap;html=1;aspect=fixed;strokeColor=#36393d;fillColor=#ffff88;" parent="77e6c97f196da883-4" vertex="1">
          <mxGeometry x="90" y="40" width="50" height="50" as="geometry" />
        </mxCell>
        <mxCell id="CKb4nDqmBLj_nbjiTrH--310" value="2" style="ellipse;whiteSpace=wrap;html=1;aspect=fixed;strokeColor=#36393d;fillColor=#ffff88;" parent="77e6c97f196da883-4" vertex="1">
          <mxGeometry x="375" y="252" width="50" height="50" as="geometry" />
        </mxCell>
        <mxCell id="CKb4nDqmBLj_nbjiTrH--295" style="edgeStyle=orthogonalEdgeStyle;rounded=0;orthogonalLoop=1;jettySize=auto;html=1;entryX=0;entryY=0.5;entryDx=0;entryDy=0;" parent="77e6c97f196da883-4" source="CKb4nDqmBLj_nbjiTrH--297" target="CKb4nDqmBLj_nbjiTrH--310" edge="1">
          <mxGeometry relative="1" as="geometry" />
        </mxCell>
        <mxCell id="CKb4nDqmBLj_nbjiTrH--311" value="3" style="ellipse;whiteSpace=wrap;html=1;aspect=fixed;strokeColor=#36393d;fillColor=#ffff88;" parent="77e6c97f196da883-4" vertex="1">
          <mxGeometry x="485" y="285" width="50" height="50" as="geometry" />
        </mxCell>
        <mxCell id="CKb4nDqmBLj_nbjiTrH--296" style="edgeStyle=orthogonalEdgeStyle;rounded=0;orthogonalLoop=1;jettySize=auto;html=1;entryX=0;entryY=0.5;entryDx=0;entryDy=0;" parent="77e6c97f196da883-4" source="CKb4nDqmBLj_nbjiTrH--297" target="CKb4nDqmBLj_nbjiTrH--311" edge="1">
          <mxGeometry relative="1" as="geometry" />
        </mxCell>
        <mxCell id="CKb4nDqmBLj_nbjiTrH--312" value="Enviar para tecnico de campo" style="text;html=1;strokeColor=none;fillColor=none;align=center;verticalAlign=middle;whiteSpace=wrap;rounded=0;" parent="77e6c97f196da883-4" vertex="1">
          <mxGeometry x="470" y="238" width="80" height="47" as="geometry" />
        </mxCell>
        <mxCell id="RMVmOYafyEuzD-MuC4tH-5" value="Recebe do N1&lt;br&gt;" style="text;html=1;strokeColor=none;fillColor=none;align=center;verticalAlign=middle;whiteSpace=wrap;rounded=0;" parent="77e6c97f196da883-4" vertex="1">
          <mxGeometry x="20" y="50" width="60" height="30" as="geometry" />
        </mxCell>
        <mxCell id="RMVmOYafyEuzD-MuC4tH-12" value="4" style="ellipse;whiteSpace=wrap;html=1;aspect=fixed;strokeColor=#36393d;fillColor=#ffff88;" parent="77e6c97f196da883-4" vertex="1">
          <mxGeometry x="375" y="340" width="50" height="50" as="geometry" />
        </mxCell>
        <mxCell id="RMVmOYafyEuzD-MuC4tH-15" value="Volta para o N1&lt;br&gt;" style="text;html=1;strokeColor=none;fillColor=none;align=center;verticalAlign=middle;whiteSpace=wrap;rounded=0;" parent="77e6c97f196da883-4" vertex="1">
          <mxGeometry x="425" y="345" width="60" height="30" as="geometry" />
        </mxCell>
        <mxCell id="RMVmOYafyEuzD-MuC4tH-30" style="edgeStyle=orthogonalEdgeStyle;rounded=0;orthogonalLoop=1;jettySize=auto;html=1;entryX=1;entryY=0.75;entryDx=0;entryDy=0;" parent="77e6c97f196da883-4" source="RMVmOYafyEuzD-MuC4tH-26" target="CKb4nDqmBLj_nbjiTrH--299" edge="1">
          <mxGeometry relative="1" as="geometry" />
        </mxCell>
        <mxCell id="RMVmOYafyEuzD-MuC4tH-26" value="4" style="ellipse;whiteSpace=wrap;html=1;aspect=fixed;strokeColor=#36393d;fillColor=#ffff88;" parent="77e6c97f196da883-4" vertex="1">
          <mxGeometry x="400" y="440" width="50" height="50" as="geometry" />
        </mxCell>
        <mxCell id="RMVmOYafyEuzD-MuC4tH-27" value="Recebe a analise do n3" style="text;html=1;strokeColor=none;fillColor=none;align=center;verticalAlign=middle;whiteSpace=wrap;rounded=0;" parent="77e6c97f196da883-4" vertex="1">
          <mxGeometry x="400" y="500" width="60" height="30" as="geometry" />
        </mxCell>
        <mxCell id="CKb4nDqmBLj_nbjiTrH--287" style="edgeStyle=orthogonalEdgeStyle;rounded=0;orthogonalLoop=1;jettySize=auto;html=1;entryX=0;entryY=0.5;entryDx=0;entryDy=0;" parent="77e6c97f196da883-1" source="CKb4nDqmBLj_nbjiTrH--259" target="CKb4nDqmBLj_nbjiTrH--262" edge="1">
          <mxGeometry relative="1" as="geometry" />
        </mxCell>
        <mxCell id="CKb4nDqmBLj_nbjiTrH--340" style="edgeStyle=orthogonalEdgeStyle;rounded=0;orthogonalLoop=1;jettySize=auto;html=1;entryX=1;entryY=0.75;entryDx=0;entryDy=0;" parent="77e6c97f196da883-1" source="CKb4nDqmBLj_nbjiTrH--332" target="RMVmOYafyEuzD-MuC4tH-10" edge="1">
          <mxGeometry relative="1" as="geometry">
            <Array as="points">
              <mxPoint x="2560" y="655" />
            </Array>
            <mxPoint x="870" y="695" as="targetPoint" />
          </mxGeometry>
        </mxCell>
        <mxCell id="CKb4nDqmBLj_nbjiTrH--341" style="edgeStyle=orthogonalEdgeStyle;rounded=0;orthogonalLoop=1;jettySize=auto;html=1;entryX=1;entryY=0.5;entryDx=0;entryDy=0;" parent="77e6c97f196da883-1" source="CKb4nDqmBLj_nbjiTrH--319" target="RMVmOYafyEuzD-MuC4tH-10" edge="1">
          <mxGeometry relative="1" as="geometry">
            <Array as="points">
              <mxPoint x="2010" y="640" />
            </Array>
            <mxPoint x="870" y="680" as="targetPoint" />
          </mxGeometry>
        </mxCell>
        <mxCell id="RMVmOYafyEuzD-MuC4tH-50" style="edgeStyle=orthogonalEdgeStyle;rounded=0;orthogonalLoop=1;jettySize=auto;html=1;entryX=1;entryY=0.25;entryDx=0;entryDy=0;" parent="77e6c97f196da883-1" source="CKb4nDqmBLj_nbjiTrH--301" target="RMVmOYafyEuzD-MuC4tH-10" edge="1">
          <mxGeometry relative="1" as="geometry">
            <Array as="points">
              <mxPoint x="1410" y="625" />
            </Array>
          </mxGeometry>
        </mxCell>
        <mxCell id="77e6c97f196da883-5" value="nivel de suporte 3 N3" style="swimlane;html=1;startSize=20;" parent="77e6c97f196da883-1" vertex="1">
          <mxGeometry x="1680" y="20" width="600" height="830" as="geometry" />
        </mxCell>
        <mxCell id="CKb4nDqmBLj_nbjiTrH--315" value="Recebe problema/requisição do N1 ou N2" style="rounded=1;whiteSpace=wrap;html=1;" parent="77e6c97f196da883-5" vertex="1">
          <mxGeometry x="240" y="70" width="180" height="60" as="geometry" />
        </mxCell>
        <mxCell id="RMVmOYafyEuzD-MuC4tH-19" style="edgeStyle=orthogonalEdgeStyle;rounded=0;orthogonalLoop=1;jettySize=auto;html=1;exitX=1;exitY=1;exitDx=0;exitDy=0;entryX=-0.002;entryY=0.347;entryDx=0;entryDy=0;entryPerimeter=0;" parent="77e6c97f196da883-5" source="CKb4nDqmBLj_nbjiTrH--318" target="RMVmOYafyEuzD-MuC4tH-16" edge="1">
          <mxGeometry relative="1" as="geometry" />
        </mxCell>
        <mxCell id="CKb4nDqmBLj_nbjiTrH--318" value="Analisar e diagnosticar o ticket" style="shape=process;whiteSpace=wrap;html=1;backgroundOutline=1;fillColor=#dae8fc;strokeColor=#6c8ebf;" parent="77e6c97f196da883-5" vertex="1">
          <mxGeometry x="245" y="230" width="170" height="65" as="geometry" />
        </mxCell>
        <mxCell id="CKb4nDqmBLj_nbjiTrH--314" value="" style="edgeStyle=orthogonalEdgeStyle;rounded=0;orthogonalLoop=1;jettySize=auto;html=1;" parent="77e6c97f196da883-5" source="CKb4nDqmBLj_nbjiTrH--315" target="CKb4nDqmBLj_nbjiTrH--318" edge="1">
          <mxGeometry relative="1" as="geometry" />
        </mxCell>
        <mxCell id="CKb4nDqmBLj_nbjiTrH--319" value="Solucionar problema" style="shape=process;whiteSpace=wrap;html=1;backgroundOutline=1;fillColor=#dae8fc;strokeColor=#6c8ebf;" parent="77e6c97f196da883-5" vertex="1">
          <mxGeometry x="270" y="410" width="120" height="60" as="geometry" />
        </mxCell>
        <mxCell id="CKb4nDqmBLj_nbjiTrH--316" style="edgeStyle=orthogonalEdgeStyle;rounded=0;orthogonalLoop=1;jettySize=auto;html=1;" parent="77e6c97f196da883-5" source="CKb4nDqmBLj_nbjiTrH--318" target="CKb4nDqmBLj_nbjiTrH--319" edge="1">
          <mxGeometry relative="1" as="geometry" />
        </mxCell>
        <mxCell id="CKb4nDqmBLj_nbjiTrH--320" style="edgeStyle=orthogonalEdgeStyle;rounded=0;orthogonalLoop=1;jettySize=auto;html=1;entryX=0.25;entryY=0;entryDx=0;entryDy=0;dashed=1;dashPattern=1 1;" parent="77e6c97f196da883-5" source="CKb4nDqmBLj_nbjiTrH--321" target="CKb4nDqmBLj_nbjiTrH--318" edge="1">
          <mxGeometry relative="1" as="geometry">
            <mxPoint x="-995" y="20" as="targetPoint" />
          </mxGeometry>
        </mxCell>
        <mxCell id="CKb4nDqmBLj_nbjiTrH--321" value="&lt;font style=&quot;font-size: 9px;&quot;&gt;Base de&lt;br&gt;Conhecimento&lt;/font&gt;" style="shape=cylinder3;whiteSpace=wrap;html=1;boundedLbl=1;backgroundOutline=1;size=15;fillColor=#e1d5e7;strokeColor=#9673a6;" parent="77e6c97f196da883-5" vertex="1">
          <mxGeometry x="180" y="130" width="55" height="61.11" as="geometry" />
        </mxCell>
        <mxCell id="CKb4nDqmBLj_nbjiTrH--322" style="edgeStyle=orthogonalEdgeStyle;rounded=0;orthogonalLoop=1;jettySize=auto;html=1;entryX=0;entryY=0.5;entryDx=0;entryDy=0;" parent="77e6c97f196da883-5" source="CKb4nDqmBLj_nbjiTrH--323" target="CKb4nDqmBLj_nbjiTrH--315" edge="1">
          <mxGeometry relative="1" as="geometry" />
        </mxCell>
        <mxCell id="CKb4nDqmBLj_nbjiTrH--323" value="2" style="ellipse;whiteSpace=wrap;html=1;aspect=fixed;strokeColor=#36393d;fillColor=#ffff88;" parent="77e6c97f196da883-5" vertex="1">
          <mxGeometry x="120" y="75" width="50" height="50" as="geometry" />
        </mxCell>
        <mxCell id="CKb4nDqmBLj_nbjiTrH--324" value="Enviar para tecnico de campo" style="text;html=1;strokeColor=none;fillColor=none;align=center;verticalAlign=middle;whiteSpace=wrap;rounded=0;" parent="77e6c97f196da883-5" vertex="1">
          <mxGeometry x="475" y="200" width="80" height="47" as="geometry" />
        </mxCell>
        <mxCell id="CKb4nDqmBLj_nbjiTrH--325" value="3" style="ellipse;whiteSpace=wrap;html=1;aspect=fixed;strokeColor=#36393d;fillColor=#ffff88;" parent="77e6c97f196da883-5" vertex="1">
          <mxGeometry x="490" y="150" width="50" height="50" as="geometry" />
        </mxCell>
        <mxCell id="CKb4nDqmBLj_nbjiTrH--317" style="edgeStyle=orthogonalEdgeStyle;rounded=0;orthogonalLoop=1;jettySize=auto;html=1;exitX=1;exitY=0;exitDx=0;exitDy=0;entryX=0;entryY=0.5;entryDx=0;entryDy=0;" parent="77e6c97f196da883-5" source="CKb4nDqmBLj_nbjiTrH--318" target="CKb4nDqmBLj_nbjiTrH--325" edge="1">
          <mxGeometry relative="1" as="geometry" />
        </mxCell>
        <mxCell id="RMVmOYafyEuzD-MuC4tH-6" value="Recebe do n1 e ou n2&lt;br&gt;" style="text;html=1;strokeColor=none;fillColor=none;align=center;verticalAlign=middle;whiteSpace=wrap;rounded=0;" parent="77e6c97f196da883-5" vertex="1">
          <mxGeometry x="50" y="85" width="60" height="30" as="geometry" />
        </mxCell>
        <mxCell id="RMVmOYafyEuzD-MuC4tH-16" value="4" style="ellipse;whiteSpace=wrap;html=1;aspect=fixed;strokeColor=#36393d;fillColor=#ffff88;" parent="77e6c97f196da883-5" vertex="1">
          <mxGeometry x="490" y="360" width="50" height="50" as="geometry" />
        </mxCell>
        <mxCell id="RMVmOYafyEuzD-MuC4tH-17" value="Volta para o N1 ou N2" style="text;html=1;strokeColor=none;fillColor=none;align=center;verticalAlign=middle;whiteSpace=wrap;rounded=0;" parent="77e6c97f196da883-5" vertex="1">
          <mxGeometry x="485" y="425" width="60" height="30" as="geometry" />
        </mxCell>
        <mxCell id="CKb4nDqmBLj_nbjiTrH--250" value="Técnico de campo" style="swimlane;html=1;startSize=20;" parent="77e6c97f196da883-1" vertex="1">
          <mxGeometry x="2280" y="20" width="440" height="830" as="geometry" />
        </mxCell>
        <mxCell id="CKb4nDqmBLj_nbjiTrH--329" value="Recebe o problema" style="rounded=1;whiteSpace=wrap;html=1;" parent="CKb4nDqmBLj_nbjiTrH--250" vertex="1">
          <mxGeometry x="219.99999999999955" y="40" width="120" height="60" as="geometry" />
        </mxCell>
        <mxCell id="CKb4nDqmBLj_nbjiTrH--331" value="Analisar e diagnosticar o ticket" style="shape=process;whiteSpace=wrap;html=1;backgroundOutline=1;fillColor=#dae8fc;strokeColor=#6c8ebf;" parent="CKb4nDqmBLj_nbjiTrH--250" vertex="1">
          <mxGeometry x="220" y="160" width="120" height="60" as="geometry" />
        </mxCell>
        <mxCell id="CKb4nDqmBLj_nbjiTrH--328" value="" style="edgeStyle=orthogonalEdgeStyle;rounded=0;orthogonalLoop=1;jettySize=auto;html=1;" parent="CKb4nDqmBLj_nbjiTrH--250" source="CKb4nDqmBLj_nbjiTrH--329" target="CKb4nDqmBLj_nbjiTrH--331" edge="1">
          <mxGeometry relative="1" as="geometry" />
        </mxCell>
        <mxCell id="CKb4nDqmBLj_nbjiTrH--332" value="Soluciona o problema" style="shape=process;whiteSpace=wrap;html=1;backgroundOutline=1;fillColor=#dae8fc;strokeColor=#6c8ebf;" parent="CKb4nDqmBLj_nbjiTrH--250" vertex="1">
          <mxGeometry x="220" y="500" width="120" height="60" as="geometry" />
        </mxCell>
        <mxCell id="CKb4nDqmBLj_nbjiTrH--330" value="" style="edgeStyle=orthogonalEdgeStyle;rounded=0;orthogonalLoop=1;jettySize=auto;html=1;" parent="CKb4nDqmBLj_nbjiTrH--250" source="CKb4nDqmBLj_nbjiTrH--331" target="CKb4nDqmBLj_nbjiTrH--332" edge="1">
          <mxGeometry relative="1" as="geometry" />
        </mxCell>
        <mxCell id="CKb4nDqmBLj_nbjiTrH--333" value="&lt;font style=&quot;font-size: 9px;&quot;&gt;Base de&lt;br&gt;Conhecimento&lt;/font&gt;" style="shape=cylinder3;whiteSpace=wrap;html=1;boundedLbl=1;backgroundOutline=1;size=15;fillColor=#e1d5e7;strokeColor=#9673a6;" parent="CKb4nDqmBLj_nbjiTrH--250" vertex="1">
          <mxGeometry x="90" y="150" width="55" height="61.11" as="geometry" />
        </mxCell>
        <mxCell id="CKb4nDqmBLj_nbjiTrH--335" style="edgeStyle=orthogonalEdgeStyle;rounded=0;orthogonalLoop=1;jettySize=auto;html=1;entryX=0;entryY=0.25;entryDx=0;entryDy=0;" parent="CKb4nDqmBLj_nbjiTrH--250" source="CKb4nDqmBLj_nbjiTrH--336" target="CKb4nDqmBLj_nbjiTrH--329" edge="1">
          <mxGeometry relative="1" as="geometry" />
        </mxCell>
        <mxCell id="CKb4nDqmBLj_nbjiTrH--336" value="3" style="ellipse;whiteSpace=wrap;html=1;aspect=fixed;strokeColor=#36393d;fillColor=#ffff88;" parent="CKb4nDqmBLj_nbjiTrH--250" vertex="1">
          <mxGeometry x="90" y="30" width="50" height="50" as="geometry" />
        </mxCell>
        <mxCell id="RMVmOYafyEuzD-MuC4tH-7" value="Recebe a chamada dos niveis 1,2 ou 3" style="text;html=1;strokeColor=none;fillColor=none;align=center;verticalAlign=middle;whiteSpace=wrap;rounded=0;" parent="CKb4nDqmBLj_nbjiTrH--250" vertex="1">
          <mxGeometry x="20" y="30" width="60" height="50" as="geometry" />
        </mxCell>
        <mxCell id="RMVmOYafyEuzD-MuC4tH-55" style="edgeStyle=orthogonalEdgeStyle;rounded=0;orthogonalLoop=1;jettySize=auto;html=1;entryX=0;entryY=0.408;entryDx=0;entryDy=0;dashed=1;dashPattern=1 1;exitX=0.99;exitY=0.564;exitDx=0;exitDy=0;exitPerimeter=0;entryPerimeter=0;" parent="CKb4nDqmBLj_nbjiTrH--250" source="CKb4nDqmBLj_nbjiTrH--333" target="CKb4nDqmBLj_nbjiTrH--331" edge="1">
          <mxGeometry relative="1" as="geometry">
            <mxPoint x="153" y="289" as="targetPoint" />
            <mxPoint x="100" y="220" as="sourcePoint" />
          </mxGeometry>
        </mxCell>
      </root>
    </mxGraphModel>
  </diagram>
</mxfile>
